<?xml version="1.0" encoding="utf-8"?>
<!-- Generator: Adobe Illustrator 19.0.1, SVG Export Plug-In . SVG Version: 6.00 Build 0)  -->
<svg version="1.1" id="Template_copy" xmlns="http://www.w3.org/2000/svg" xmlns:xlink="http://www.w3.org/1999/xlink" x="0px"
	 y="0px" viewBox="-258 349.6 94.6 94.4" style="enable-background:new -258 349.6 94.6 94.4;" xml:space="preserve">
<g>
	<path d="M-217.2,418.7c-0.4-1.3-0.6-2.6-0.6-4.6c0-16.2,12.7-17.7,12.7-36.1c0-5.3-2.1-7.3-5.8-7.3c-3.7,0-5.8,2-5.8,7.3v8h-11
		v-7.3c0-11.9,5.8-18.6,17.1-18.6c11.3,0,17.1,6.8,17.1,18.6c0,19.3-13.8,22.2-13.8,35.8c0,1.4,0.1,2.8,0.4,4.1H-217.2z
		 M-206.5,423.8v11.2h-11.2v-11.2H-206.5z"/>
</g>
</svg>
