<?xml version="1.0" encoding="utf-8"?>
<!-- Generator: Adobe Illustrator 19.0.1, SVG Export Plug-In . SVG Version: 6.00 Build 0)  -->
<svg version="1.1" id="Template" xmlns="http://www.w3.org/2000/svg" xmlns:xlink="http://www.w3.org/1999/xlink" x="0px" y="0px"
	 viewBox="-258 349.6 94.6 94.4" style="enable-background:new -258 349.6 94.6 94.4;" xml:space="preserve">
<style type="text/css">
	.st0{fill:#FFFFFF;}
</style>
<circle cx="-210.7" cy="396.8" r="46.7"/>
<g>
	<path class="st0" d="M-225.5,374.7c2.1,0,3.9,0.2,5.7,0.5c1.7,0.4,3.1,1,4.4,1.8c1.2,0.8,2.2,1.9,2.8,3.3c0.7,1.4,1,3.1,1,5.1
		c0,2.2-0.5,4-1.5,5.5c-1,1.5-2.5,2.6-4.4,3.6c2.7,0.8,4.6,2.1,5.9,4c1.3,1.9,2,4.2,2,7c0,2.2-0.4,4.1-1.3,5.7
		c-0.8,1.6-2,2.9-3.4,3.9c-1.4,1-3.1,1.8-4.9,2.2c-1.8,0.5-3.7,0.7-5.7,0.7h-21v-43.3H-225.5z M-226.7,392.2c1.7,0,3.1-0.4,4.2-1.2
		c1.1-0.8,1.6-2.1,1.6-3.9c0-1-0.2-1.8-0.5-2.5c-0.4-0.6-0.9-1.2-1.5-1.5c-0.6-0.4-1.3-0.6-2.1-0.8c-0.8-0.2-1.6-0.2-2.5-0.2h-8.9
		v10.1H-226.7z M-226.2,410.7c0.9,0,1.8-0.1,2.7-0.3c0.9-0.2,1.6-0.5,2.2-0.9c0.6-0.4,1.2-1,1.5-1.7c0.4-0.7,0.6-1.7,0.6-2.8
		c0-2.2-0.6-3.8-1.9-4.8c-1.3-0.9-2.9-1.4-5-1.4h-10.4v11.9H-226.2z"/>
	<path class="st0" d="M-196,410.5c1.3,1.3,3.2,1.9,5.6,1.9c1.7,0,3.2-0.4,4.5-1.3c1.2-0.9,2-1.8,2.3-2.8h7.6
		c-1.2,3.8-3.1,6.5-5.6,8.1c-2.5,1.6-5.5,2.4-9.1,2.4c-2.5,0-4.7-0.4-6.7-1.2c-2-0.8-3.7-1.9-5.1-3.4c-1.4-1.5-2.4-3.2-3.2-5.2
		c-0.7-2-1.1-4.3-1.1-6.7c0-2.3,0.4-4.5,1.2-6.6c0.8-2,1.9-3.8,3.3-5.3c1.4-1.5,3.1-2.6,5.1-3.5c2-0.8,4.1-1.3,6.5-1.3
		c2.7,0,5,0.5,7,1.6c2,1,3.6,2.4,4.9,4.2c1.3,1.7,2.2,3.7,2.8,6c0.6,2.2,0.8,4.5,0.6,7h-22.6C-198.2,406.9-197.3,409.3-196,410.5z
		 M-186.1,394.1c-1-1.1-2.8-1.7-4.9-1.7c-1.4,0-2.5,0.2-3.4,0.7c-0.9,0.5-1.6,1-2.2,1.7c-0.6,0.7-0.9,1.4-1.2,2.2
		c-0.2,0.8-0.4,1.5-0.4,2.1h14C-184.4,396.8-185.1,395.2-186.1,394.1z"/>
	<rect x="-199.9" y="377.6" class="st0" width="17.6" height="4.3"/>
</g>
</svg>
