<?xml version="1.0" encoding="utf-8"?>
<!-- Generator: Adobe Illustrator 19.0.1, SVG Export Plug-In . SVG Version: 6.00 Build 0)  -->
<svg version="1.1" id="Template_copy" xmlns="http://www.w3.org/2000/svg" xmlns:xlink="http://www.w3.org/1999/xlink" x="0px"
	 y="0px" viewBox="-258 349.6 94.6 94.4" style="enable-background:new -258 349.6 94.6 94.4;" xml:space="preserve">
<g>
	<path d="M-212.9,365.7v-4.8h8.3v4.8c7.2,1.5,10.9,7,10.9,15.8v2h-9.6v-2.7c0-4.6-1.9-6.4-5.1-6.4c-3.2,0-5.1,1.8-5.1,6.4
		c0,13.3,19.9,14,19.9,32.5c0,8.8-3.8,14.5-11,15.9v4.7h-8.3v-4.7c-7.3-1.5-11-7.1-11-15.9v-4.4h9.6v5.1c0,4.6,2,6.3,5.3,6.3
		c3.2,0,5.3-1.7,5.3-6.3c0-13.3-19.9-14-19.9-32.5C-223.7,372.8-220.1,367.2-212.9,365.7z"/>
</g>
</svg>
