<?xml version="1.0" encoding="utf-8"?>
<!-- Generator: Adobe Illustrator 19.0.1, SVG Export Plug-In . SVG Version: 6.00 Build 0)  -->
<svg version="1.1" xmlns="http://www.w3.org/2000/svg" xmlns:xlink="http://www.w3.org/1999/xlink" x="0px" y="0px"
	 viewBox="-258 349.6 94.6 94.4" style="enable-background:new -258 349.6 94.6 94.4;" xml:space="preserve">
<style type="text/css">
	.st0{display:none;}
	.st1{display:inline;}
	.st2{fill:#C32361;}
	.st3{fill:#EA4C89;}
</style>
<g id="Template" class="st0">
	<circle class="st1" cx="-210.7" cy="396.8" r="46.7"/>
</g>
<g id="Layer_2">
	<g>
		<path class="st2" d="M-210.9,443.5c-25.1,0.2-47-20.8-46.6-47.6c0.4-24.7,20.6-45.9,46.8-45.8c26.1,0,46.7,21.1,46.7,46.8
			C-164,423.3-185.8,443.8-210.9,443.5z"/>
		<path class="st3" d="M-210.7,436.6c-8.4-0.1-16.1-2.7-23-7.4c-1-0.7-1.1-1.2-0.5-2.3c5.4-8.7,12.9-15,21.9-19.7
			c2.4-1.3,4.9-2.4,7.4-3.3c0.9-0.3,1.3-0.1,1.7,0.7c3.4,9.1,6,18.3,7.8,27.9c0.1,0.8-0.2,1-0.8,1.3c-3.1,1.2-6.2,2-9.5,2.4
			C-207.4,436.4-209.1,436.5-210.7,436.6z"/>
		<path class="st3" d="M-250.3,398.7c0-3.5-0.4-2.8,3-2.9c12.1-0.3,24.1-1.8,35.9-5.1c1.8-0.5,1.9-0.5,2.7,1.2
			c0.5,1.2,1.1,2.4,1.7,3.5c0.5,0.9,0.3,1.3-0.7,1.7c-3.7,1.2-7.4,2.8-10.7,4.8c-8.4,5.1-15.3,11.9-20.8,20c-0.9,1.3-1,1.4-2,0.1
			c-4.6-5.7-7.5-12.3-8.5-19.6c-0.1-0.6-0.2-1.2-0.2-1.8C-250.2,400-250.2,399.5-250.3,398.7z"/>
		<path class="st3" d="M-245.5,388.5c-0.9,0-1.8-0.1-2.7,0c-1.1,0.1-1.3-0.4-1-1.3c0.6-2.1,1.2-4.2,2.1-6.2
			c3.7-8.3,9.5-14.7,17.5-19c1.9-1,1.9-1,3.1,0.7c4.5,6.3,8.7,12.9,12.6,19.7c0.8,1.4,0.8,1.5-0.8,1.9c-5.9,1.5-11.9,2.6-18,3.3
			C-237,388-241.2,388.4-245.5,388.5z"/>
		<path class="st3" d="M-210.7,357.2c9.2,0.1,17.5,3,24.8,8.6c1.5,1.2,1.5,1.3,0.3,2.7c-4.3,4.9-9.6,8.3-15.4,11
			c-0.9,0.4-1.8,0.7-2.7,1.2c-1.1,0.6-1.6,0.2-2.1-0.8c-2.8-5.1-5.8-10-9-14.7c-1.3-2-2.7-3.9-4.1-5.9c-0.7-1-0.6-1.2,0.5-1.4
			C-215.9,357.5-213.3,357.2-210.7,357.2z"/>
		<path class="st3" d="M-171.1,394.1c0,0.2,0,0.5,0,0.7c0.1,1.1-0.3,1.4-1.5,1.2c-6.6-1.2-13.3-1.6-20-1.5c-1.5,0-3.1,0.2-4.6,0.4
			c-0.9,0.1-1.5-0.1-1.9-1.1c-0.7-1.8-1.5-3.5-2.3-5.2c-0.5-1-0.2-1.4,0.8-1.8c5.6-2.4,10.8-5.5,15.4-9.6c1.6-1.4,3-2.9,4.5-4.5
			c0.6-0.7,1-0.7,1.6,0c3.7,5,6.2,10.6,7.4,16.7C-171.5,391.1-171.2,392.6-171.1,394.1z"/>
		<path class="st3" d="M-188.1,401.1c5.1-0.1,9.9,0.5,14.7,1.7c1.8,0.5,1.8,0.5,1.4,2.3c-2.1,9.7-7.1,17.6-15,23.6
			c-1.3,1-1.4,1-1.7-0.6c-1.7-8.6-4-17-7-25.2c-0.4-1.1,0-1.4,1-1.5C-192.4,401.1-190.1,401-188.1,401.1z"/>
	</g>
</g>
</svg>
