<?xml version="1.0" encoding="utf-8"?>
<!-- Generator: Adobe Illustrator 19.0.1, SVG Export Plug-In . SVG Version: 6.00 Build 0)  -->
<svg version="1.1" id="Template" xmlns="http://www.w3.org/2000/svg" xmlns:xlink="http://www.w3.org/1999/xlink" x="0px" y="0px"
	 viewBox="-258 349.6 94.6 94.4" style="enable-background:new -258 349.6 94.6 94.4;" xml:space="preserve">
<style type="text/css">
	.st0{fill:#FFFFFF;}
	.st1{fill:#E4E4E4;}
	.st2{fill:#E84132;}
</style>
<circle class="st0" cx="-210.7" cy="396.8" r="46.7"/>
<g id="Layer_2">
	<g>
		<path class="st1" d="M-185.4,419.9c-16.8,0-33.6,0-50.3,0c-0.4-0.5-0.4-1.1-0.4-1.7c0-10.3,0-20.6,0-30.9c0-0.2,0-0.4,0-0.5
			c0.1-1.4,0.6-1.7,1.8-0.9c2.3,1.6,4.5,3.1,6.7,4.7c5.2,3.7,10.4,7.3,15.6,11c1,0.7,1.8,0.7,2.8,0c7.1-5.1,14.3-10.1,21.4-15.1
			c0.6-0.5,1.3-1.3,2.2-0.9c0.8,0.4,0.5,1.5,0.5,2.3c0,10,0,20,0,29.9C-185,418.5-184.9,419.2-185.4,419.9z"/>
		<path class="st2" d="M-185.4,419.9c0-5.4,0-10.9-0.1-16.3c0-5.9,0-11.9,0-17.9c-0.7-0.2-1,0.4-1.4,0.7c-7.5,5.3-15,10.6-22.5,15.9
			c-0.9,0.6-1.4,0.6-2.3,0c-7.5-5.3-15-10.6-22.5-15.9c-0.4-0.3-0.7-0.7-1.3-0.7c-0.3,0.5-0.1,1-0.1,1.5c0,10.3,0,20.7,0,31
			c0,0.6,0,1.2-0.1,1.8c-0.9,0-1.8,0-2.7,0c-2.3-0.1-4.1-1.8-4.1-4.1c0-12.6,0-25.2,0-37.9c0-2.6,1.8-4.2,4.6-4.1
			c2.3,1,4.1,2.7,6.1,4.1c6.7,4.8,13.5,9.7,20.1,14.6c1,0.8,1.7,0.4,2.6-0.2c5-3.7,10-7.3,15-10.9c3.1-2.3,6.3-4.6,9.4-6.9
			c0.4-0.3,0.9-0.5,1.3-0.7c2.8-0.1,4.5,1.6,4.5,4.4c0,12.4,0,24.7,0,37.1c0,2.9-1.7,4.5-4.6,4.6
			C-184.1,419.9-184.7,419.9-185.4,419.9z"/>
		<path class="st1" d="M-183.4,373.8c-6.2,4.6-12.4,9.1-18.7,13.7c-2.5,1.9-5.1,3.7-7.6,5.6c-0.5,0.3-0.8,0.7-1.4,0.2
			c-8.9-6.5-17.9-13-26.8-19.5c12,0,24,0,36.1,0C-195.7,373.7-189.6,373.8-183.4,373.8z"/>
	</g>
</g>
</svg>
