<?xml version="1.0" encoding="utf-8"?>
<!-- Generator: Adobe Illustrator 19.0.1, SVG Export Plug-In . SVG Version: 6.00 Build 0)  -->
<svg version="1.1" id="Template_copy" xmlns="http://www.w3.org/2000/svg" xmlns:xlink="http://www.w3.org/1999/xlink" x="0px"
	 y="0px" viewBox="-452 453.6 94.6 94.4" style="enable-background:new -452 453.6 94.6 94.4;" xml:space="preserve">
<style type="text/css">
	.st0{fill:#FDFDFD;}
	.st1{fill:#010101;}
</style>
<circle cx="-404.7" cy="500.8" r="46.7"/>
<g>
	<path class="st0" d="M-428.5,500.6c0-5.9,0-11.8,0-17.7c0-3.9,2.1-6,6-6c11.9,0,23.7,0,35.6,0c3.7,0,6.1,2.3,6.1,6
		c0,11.9,0,23.8-0.1,35.7c0,3.7-2.2,5.9-6,5.9c-5.2,0-10.3,0-15.5,0c-6.5,0-13.1,0-19.6,0c-4.5,0-6.5-2-6.5-6.4
		C-428.5,512.3-428.5,506.5-428.5,500.6z"/>
	<path class="st1" d="M-404.8,521.1c-5.7,0-11.4,0-17,0c-2.6,0-3.1-0.4-3.1-3.1c0-6.5,0-13,0-19.5c0-1,0.3-1.4,1.3-1.3
		c1.1,0.1,2.2,0.1,3.4,0c0.9-0.1,1.3,0.1,1.1,1.2c-0.7,4.6,0.4,8.8,3.6,12.3c4.3,4.7,11.4,6.1,17.1,3.3c6-2.9,9.4-9.3,8.3-15.6
		c-0.2-1.1,0.1-1.2,1-1.2c1.2,0.1,2.4,0,3.6,0c0.7,0,1,0.2,1,0.9c0,5.1,0,10.1,0,15.2c0,1.9,0,3.8-0.1,5.7c0,1.2-0.6,1.8-1.8,1.9
		c-1,0.1-2.1,0.1-3.1,0.1C-394.6,521.1-399.7,521.1-404.8,521.1z"/>
	<path class="st1" d="M-393.8,500.8c0,6.1-5,11-11.1,11c-5.9,0-10.9-5-10.9-11c0-6.2,5-11.1,11.2-11.1
		C-398.7,489.7-393.7,494.8-393.8,500.8z"/>
	<path class="st1" d="M-389.1,489.7c-0.8,0-1.6,0-2.4,0c-1.4-0.1-2.1-0.7-2.1-2.1c0-1.7,0-3.4,0-5.2c0-1.2,0.7-1.9,1.8-1.9
		c1.8-0.1,3.7-0.1,5.5,0c1,0,1.7,0.7,1.7,1.7c0,1.8,0.1,3.7,0,5.5c0,1.2-0.7,1.9-2,1.9C-387.4,489.7-388.3,489.7-389.1,489.7z"/>
</g>
</svg>
