<?xml version="1.0" encoding="utf-8"?>
<!-- Generator: Adobe Illustrator 19.0.1, SVG Export Plug-In . SVG Version: 6.00 Build 0)  -->
<svg version="1.1" id="Template_copy" xmlns="http://www.w3.org/2000/svg" xmlns:xlink="http://www.w3.org/1999/xlink" x="0px"
	 y="0px" viewBox="-452 453.6 94.6 94.4" style="enable-background:new -452 453.6 94.6 94.4;" xml:space="preserve">
<style type="text/css">
	.st0{fill:#00A9F0;}
	.st1{fill:#FEFEFE;}
</style>
<circle class="st0" cx="-404.7" cy="500.8" r="46.7"/>
<g>
	<path class="st1" d="M-378.3,502c-0.5,2.4,0,5.4,0.6,8.5c1.1,5.4-0.7,10.3-5.1,13.8c-4.3,3.5-9.2,4.2-14.4,2.4
		c-1.2-0.4-2.4-0.7-3.7-0.5c-16.7,1.7-30.2-12.4-27.8-28.9c0.1-1-0.1-1.7-0.4-2.6c-2.6-5.8-1.4-12.2,3-16.6
		c4.4-4.4,10.9-5.5,16.6-2.7c1.1,0.5,2.1,0.6,3.2,0.5C-390.9,474.5-378.2,486.1-378.3,502z"/>
	<path class="st0" d="M-403.7,518.3c-3.9,0-7.6-0.6-10.8-3.1c-1.9-1.5-3.2-3.4-3.8-5.7c-0.4-1.9,0.1-3.5,2-4.2
		c1.8-0.7,3.4-0.2,4.5,1.4c0.3,0.4,0.5,0.9,0.7,1.4c2.3,4.5,7,6.1,11.6,3.7c1.6-0.8,2.7-1.9,2.7-3.8c-0.1-1.8-1.3-2.8-2.8-3.4
		c-2.2-0.9-4.5-1.2-6.7-1.8c-2.6-0.7-5.3-1.3-7.5-2.9c-5.1-3.5-5.2-10.5-0.1-14c4.9-3.4,14.6-3.5,19.6-0.3c1.5,1,2.7,2.2,3.4,3.8
		c1,2.3,0.5,4.3-1.3,5.3c-1.9,1-3.8,0.5-5-1.8c-1.8-3.6-4.7-4.6-8.4-4.1c-0.7,0.1-1.5,0.3-2.2,0.6c-1.2,0.5-2.3,1.3-2.3,2.8
		c-0.1,1.5,1,2.3,2.2,2.8c2.1,1,4.4,1.3,6.7,1.9c2.3,0.6,4.5,1.1,6.6,2.1c3.2,1.4,5.4,3.7,5.7,7.4c0.3,3.8-1.1,6.9-4.3,9.1
		C-396.4,517.8-399.9,518.4-403.7,518.3z"/>
</g>
</svg>
