<?xml version="1.0" encoding="utf-8"?>
<!-- Generator: Adobe Illustrator 19.0.1, SVG Export Plug-In . SVG Version: 6.00 Build 0)  -->
<svg version="1.1" id="Template" xmlns="http://www.w3.org/2000/svg" xmlns:xlink="http://www.w3.org/1999/xlink" x="0px" y="0px"
	 viewBox="-258 349.6 94.6 94.4" style="enable-background:new -258 349.6 94.6 94.4;" xml:space="preserve">
<style type="text/css">
	.st0{fill:#3AB6E4;}
	.st1{fill:#FFFFFF;}
	.st2{fill:#D2E5F1;}
	.st3{fill:#B5CFE4;}
</style>
<circle class="st0" cx="-210.7" cy="396.8" r="46.7"/>
<g>
	<path class="st1" d="M-190.3,380.1l-8,40.5c0,0-1.1,2.8-4.2,1.5l-18.5-14.2l-6.7-3.3l-11.3-3.8c0,0-1.7-0.6-1.9-2
		c-0.2-1.3,2-2.1,2-2.1L-194,379C-194,379-190.3,377.4-190.3,380.1z"/>
	<path class="st2" d="M-222.5,420.1c0,0-0.5-0.1-1.2-2.2c-0.7-2.1-4.1-13.4-4.1-13.4l27.2-17.3c0,0,1.6-1,1.5,0c0,0,0.3,0.2-0.6,1
		c-0.8,0.8-21.4,19.2-21.4,19.2"/>
	<path class="st3" d="M-214,413.3l-7.3,6.7c0,0-0.6,0.4-1.2,0.2l1.4-12.4"/>
</g>
</svg>
