<?xml version="1.0" encoding="utf-8"?>
<!-- Generator: Adobe Illustrator 19.0.1, SVG Export Plug-In . SVG Version: 6.00 Build 0)  -->
<svg version="1.1" id="Template" xmlns="http://www.w3.org/2000/svg" xmlns:xlink="http://www.w3.org/1999/xlink" x="0px" y="0px"
	 viewBox="-258 349.6 94.6 94.4" style="enable-background:new -258 349.6 94.6 94.4;" xml:space="preserve">
<style type="text/css">
	.st0{fill:#1AB7EA;}
	.st1{fill:#FFFFFF;}
</style>
<circle class="st0" cx="-210.7" cy="396.8" r="46.7"/>
<path class="st1" d="M-172.9,384.6c-0.4,7.7-5.7,18.2-16.1,31.6c-10.7,14-19.8,20.9-27.2,20.9c-4.6,0-8.5-4.2-11.7-12.7
	c-2.1-7.8-4.2-15.6-6.4-23.4c-2.4-8.5-4.9-12.7-7.6-12.7c-0.6,0-2.7,1.2-6.2,3.7l-3.7-4.8c3.9-3.4,7.7-6.8,11.5-10.3
	c5.2-4.5,9.1-6.9,11.7-7.1c6.1-0.6,9.9,3.6,11.3,12.6c1.5,9.7,2.6,15.7,3.2,18.1c1.8,8,3.7,12.1,5.9,12.1c1.7,0,4.1-2.6,7.4-7.8
	c3.3-5.2,5.1-9.2,5.3-11.9c0.5-4.5-1.3-6.8-5.3-6.8c-1.9,0-3.8,0.4-5.8,1.3c3.9-12.7,11.3-18.9,22.2-18.5
	C-176.3,369-172.4,374.3-172.9,384.6z"/>
</svg>
