<?xml version="1.0" encoding="utf-8"?>
<!-- Generator: Adobe Illustrator 19.0.1, SVG Export Plug-In . SVG Version: 6.00 Build 0)  -->
<svg version="1.1" id="Template" xmlns="http://www.w3.org/2000/svg" xmlns:xlink="http://www.w3.org/1999/xlink" x="0px" y="0px"
	 viewBox="-258 349.6 94.6 94.4" style="enable-background:new -258 349.6 94.6 94.4;" xml:space="preserve">
<style type="text/css">
	.st0{fill:#4D75A4;}
	.st1{fill:#FEFEFE;}
</style>
<circle class="st0" cx="-210.7" cy="396.8" r="46.7"/>
<path class="st1" d="M-185.5,419.5c-1.4,0-2.9,0-4.3,0c-2.3,0.1-4.2-0.8-5.8-2.4c-2-2-3.8-4-5.8-6c-2-2-3.1-1.1-4.1,0.7
	c-0.6,1.1-0.9,2.3-0.8,3.6c0.1,0.9-0.2,1.7-0.3,2.5c-0.3,1.4-1.7,1.6-2.8,1.7c-6.4,0.4-12.5-0.8-17.8-4.6c-3.6-2.5-6.4-5.9-8.9-9.4
	c-3.9-5.5-7.1-11.3-10-17.3c-0.8-1.7-1.7-3.4-2.3-5.1c-0.6-1.8-0.5-2.8,1.9-2.9c1.9,0,3.9-0.1,5.8,0c1.3,0.1,2.5-0.3,3.8-0.3
	c1.9,0,3.2,0.8,3.9,2.6c1.9,4.9,4.5,9.3,7.6,13.6c0.6,0.8,1.3,1.5,2.2,2c1,0.6,1.6,0.1,2-0.6c0.4-0.7,0.5-1.5,0.6-2.3
	c0.4-3.6,0.5-7.2-0.3-10.7c-0.3-1.5-1.3-2.4-2.8-2.8c-1.4-0.4-1.5-0.8-0.4-1.8c1-0.9,2.3-1.3,3.5-1.4c3.9-0.5,7.9-0.5,11.8,0.2
	c1.5,0.3,2.5,1.7,2.6,3.5c0.1,4-0.4,8-0.3,12c0,1.1,0.2,2.2,0.8,3.2c0.5,0.9,1.1,1,2,0.5c1.9-1.2,3-3.1,4.2-4.9
	c2.4-3.5,4.3-7.3,5.8-11.3c0.4-1.1,1.2-1.6,2.4-1.6c4.1,0,8.2,0.1,12.3,0c2.7-0.1,3,1.1,2.3,3.4c-0.8,2.7-2.6,4.9-4.1,7.2
	c-2,3-4.5,5.8-6.5,8.8c-1.2,1.8-1.1,2.8,0.4,4.3c2.3,2.3,4.6,4.6,6.9,6.9c1.4,1.5,2.6,3.1,3.5,5c0.7,1.5,0,2.7-1.5,3.3
	c-0.9,0.3-1.7,0.5-2.7,0.5C-182.5,419.5-184,419.5-185.5,419.5z"/>
</svg>
